<svg id="Capa_1" data-name="Capa 1" xmlns="http://www.w3.org/2000/svg" viewBox="0 0 176.47 235.8"><title>logo 8vo</title><path d="M135.39,208.48h1.35c-.93-8.83,3.95-15.76,6.6-23.5l1.49.64c0-.24.14-.44.09-.61-2-6.7-5.49-12.58-9.4-18.35a84.14,84.14,0,0,1-7.87-14.4,130.75,130.75,0,0,1-7.11-20.67c-1.73-7.42-3.78-15-2.08-22.82.07-.31.17-.62.35-1.26l14.54,19.81c1.23-2.11.21-3.57-1.31-5.42-4.16-5.06-8.13-10.29-11.81-15.71a66,66,0,0,1-5.08-10,22.16,22.16,0,0,1-1-4.57l-.31,1-.25,0V83.75a3.52,3.52,0,0,0-.78-.31c-4.48-.15-9-.13-13.43-.48-3-.23-5.89-1-8.85-1.46a32.64,32.64,0,0,1-5.46-.85c1.7-.2,3.4-.51,5.11-.56,3.61-.12,7.25,0,10.85-.22,1.37-.1,2.67-1.09,4-1.67l-.26-.71c-.83.12-1.67.19-2.48.35-6.25,1.25-12-.31-17.48-3.17a6.16,6.16,0,0,0-1.46-.6c-1.27-.3-2.75-.21-3.78-.86-3.85-2.44-8.16-2.27-12.37-2.41-4-.14-7.88-.65-11.3-3a1.85,1.85,0,0,1-.66-.91c6.48,3.13,12.81-.62,19.25-.07a20,20,0,0,0-9.3-3.9c-3.62-.68-7.3-1.06-10.92-1.71A11.63,11.63,0,0,1,47.63,57c5.42,2.92,10.92,2.46,16.59.84a15.89,15.89,0,0,1,13.2,2.19l-6.65-.38c.33.31.57.73.9.81,3.29.85,6.58,2.2,9.91,2.33a49.2,49.2,0,0,0,20.08-3.65c.55-.22,1.08-.51,2.14-1-7.48,1-14.34,2.69-22,1.69a9.49,9.49,0,0,0,5.54-8.1c-2.75,0-5.4,0-8.06,0-1.35,0-1.11-.58-2.51-1.26-1.56-.78-2.45-2.17-3.9-3a9.55,9.55,0,0,0-8.9-.5c-2.36,1-4.69.69-7.23-.11,2.59-.84,5-1.57,7.3-2.38a17.09,17.09,0,0,1,11.63.06c4.64,1.62,8.8.11,12.74-2.26l0-.59c-1.61-.24-3.25-.81-4.82-.66-6,.59-11.58-.14-16.88-3.34-1.85-1.12-4.36-1.14-7-1.76,2.33,0,4.39-.4,6.21.07,7,1.84,13.84,1.19,20.64-1A15.67,15.67,0,0,1,98,36.06l-11,2.28.13.36c3.33,0,6.71-.31,10,.11a16.42,16.42,0,0,1,6.18,2.56,20.53,20.53,0,0,0,15.15,3.14,35.18,35.18,0,0,1-5-1.37,38.82,38.82,0,0,1-4.82-2.88c-1.58-1-3.15-2-4.94-3.13,3.11-2.07,6.49-1.56,9.74-1.84A22.67,22.67,0,0,0,103.2,33.4a10.42,10.42,0,0,1-3.59-.74c-1.77-.56-3.51-1.26-5.75-2.08l6.87-3.37-.06-.58a38,38,0,0,0-4.41.29c-3.34.62-6.65,1.39-10,1.74C90.17,27.39,94.06,26,98,24.87c4.71-1.3,8.29,1.26,11.74,4L105,27.52c5.07,2.65,9,8,15.82,6.86L112,27.87l.22-.32,4.69.79.15-.43L113,26.21c2.65-.41,5.18-.82,7.71-1.17a3.48,3.48,0,0,1,1.76.19c5,2.29,10,1.74,15,.25s10.23-2.56,15.4-.48a11.55,11.55,0,0,1,7.05,7.3c.69,2.13.06,2.82-2.13,2.67a29.7,29.7,0,0,0-4.62.05,3.4,3.4,0,0,0-3,2.88c-.13.57.42,1.3.69,1.94A11.11,11.11,0,0,1,152,42.58a53.2,53.2,0,0,1,0,5.54l-1.48.42-.57.63,2.23,1.06-.31.58L148.69,50l1.7,2c-.41,0-.74,0-1,.09a15.5,15.5,0,0,0-1.39,1c.57.45,1.21,1.34,1.69,1.26a4.84,4.84,0,0,0,2.37-1.38c2.22-2.21,4.38-4.5,5-7.95,2.36,4.36,1.32,8.27-2.75,10.41A6.26,6.26,0,0,0,151,60.28c.85,0,1.59.06,2.32,0,2.09-.18,4.42-.61,5.78,1.34s-.14,3.85-1.17,5.54a106.49,106.49,0,0,0-10.7,22.44,20,20,0,0,1-2.29,3.87c1.71.17,2,0,7-6.53-1.72,5.1-3.32,10.26-7.11,14.81l-4-4.5-.54.32c4.23,7.73,7.25,15.81,7.43,24.85,3.3-.59,5.08-2.75,7.22-5.46v11.5l.46.19c1.16-2.75,2.31-5.51,3.46-8.26l.39,0c.09,1.75.63,3.63.18,5.23-1.94,6.85-1,13.89-1.72,20.8-.42,3.81-1,7.6-1.4,11.4a41.59,41.59,0,0,0,1.61,15.76,17.45,17.45,0,0,0,.78,1.79c1.48-5.16,2.86-9.93,4.22-14.7.94-3.29,1.93-6.58,2.71-9.91.34-1.42,1.16-1.45,2.21-1.33,6.37.7,10.88,4.17,13.6,9.78,1.5,3.09,2.33,6.51,3.57,10.09.22-2.82.43-5.52.63-8.2,5.84.08,12.8,7.18,14.7,15.18.26-1.28.45-2.25.69-3.42A14.87,14.87,0,0,1,211.76,179c2.7,3.59,3.4,7.81,3.91,12.23.34-1.5.69-3,1.06-4.6,2,.59,3,2.22,3.89,3.84,3.18,5.81,3.71,12.15,3.39,18.59-.89,18.38-11.43,30.31-26.53,38.94-12.74,7.27-26.79,10.18-41.25,11.1a210.76,210.76,0,0,1-23.17.35c-14.23-.67-28.19-3-41-9.62-16.26-8.41-25.91-21.51-28.11-39.89-.81-6.82-.38-13.4,2.45-19.74a6.57,6.57,0,0,0,.15-2.21c.31,0,.93.12,1.1-.09,1.7-2.16,4.22-3.71,4.65-6.83C73,176,79.78,169.1,85.81,169a2.41,2.41,0,0,0,1.79-1.21c2.47-6.11,7.22-9,13.51-9.53,1.57-.14,2.24-.89,3-2.2a29.28,29.28,0,0,1,4-5.63c3.1-3.37,7.32-4.45,11.67-5.14,2-.31,3.09.54,3.8,2.36a113.76,113.76,0,0,0,13.91,26.06c1.07,1.45,2,3,2.91,4.58a5.84,5.84,0,0,1,.53,5.31c-2,5.83-3.7,11.75-5.19,17.72-.56,2.26-.21,4.76-.26,7.15.2,2.34.38,4.67.57,7C135.84,213.15,138.17,210.55,135.39,208.48Zm1.32-75.33-2.85-4.35c.11,2.42,1,3.71,2.91,4.31-.43,2.17,1.22,3,2.39,4.06l1.63-1.47Zm3.51-67.26h-.74c-1.89-5.17-6.56-4.31-10.48-5.47-1.37,5.55.63,10.19,2.8,14.9a47.75,47.75,0,0,1-5.12-3.16c-2.44-1.67-3-3.49-2.48-6.39.43-2.36.51-4.78.77-7.17.2-1.78-.67-2.53-2.71-2.6a9.52,9.52,0,0,1,1.23,2,4.51,4.51,0,0,1,.13,2.16c-.39,2.14-1.38,2.48-3,1-1.16-1.09-2.18-2.35-3.26-3.53l-.34.15,3.79,9.67.32-.11.3-2.34c.5,1.56.84,2.56,1.15,3.58.65,2.13,1.33,4.23,3.21,5.68s3.58,3.07,5.54,4.35c2.47,1.61,5.12,2.94,7.7,4.39l.33-.49c-1.37-2.11-3.24-4-2.72-6.87.49-2.69,1.54-4.92,4.18-6.3l2.3,7.54c2.67-3.59,5.11-6.92,7.6-10.22,1.14-1.5,1.72-3,.69-4.58l-5.84,2-.45-.76,3.29-3.16a6.83,6.83,0,0,1-.68-2.51c.22-2.07-1.05-2.56-2.54-3L142,60.64l3.37-2.11.53.6Zm9,170.38c0,2.86,0,5.31,0,7.76a21.91,21.91,0,0,1,.29,3c-.24,2.15.63,3.45,3,4.26.48-.57,1.11-1.26,1.66-2a16.25,16.25,0,0,0,0-19.86,3.13,3.13,0,0,1-.53-2.41c1.81-5.28,3.51-10.59,3.77-16.19.21-4.59,0-9.2,0-13.8-.65,4-.8,8-1.27,12-.91,7.58-3.59,14.63-6.46,21.66-2.51,6.13-6,12.09-4.92,19.21.23,1.5-.64,2.62-2.2,3.21a17.69,17.69,0,0,0-2.86,1.75l.18.52a14.73,14.73,0,0,0,9-1.88c-2.43-1.34-2.23-3.24-2-5.16a12.83,12.83,0,0,0,.12-3.21C146.42,242,147.36,239.28,149.19,236.27Zm4.47-68.33c-1.94-16.91-12.32-28-25.15-37.75a12.35,12.35,0,0,0,.78,2c2.29,3.54,4.33,7.28,7,10.52,5,6.11,10.62,11.78,14.25,18.94C151.57,163.72,152.57,165.75,153.66,167.94Zm-43.13,73.57a8.6,8.6,0,0,0-5.73-5.72c-1.19-.42-2.61-.71-3.43-1.54A41,41,0,0,1,96,227.82a38.64,38.64,0,0,0-9.55-10.71,12.06,12.06,0,0,0-.13,1.42c.3,6.61,3.47,11.4,9.23,14.58.89.5,2.08,1.07,2.41,1.9C99.82,239.57,106,241.91,110.53,241.51Zm23.11-15.79c-6,2.26-10.25,11.88-7.08,18.82,2-2.16,4.52-3.82,5.23-6.91.32-1.35.37-2.92,1.12-4C134.72,231.12,134.47,228.56,133.64,225.72Zm-21,5.07c.48,1.87,1.67,3.1,3.44,2.79a4,4,0,0,0,2.62-2.31c.67-2.28-1.36-3-3-3.65.27-3.93-1.2-6.08-4.16-6.26-2.44-.15-4.43,1.93-4.45,4.66C107.08,229.16,109,230.89,112.61,230.79ZM155.23,29.52l.38-.81a46.57,46.57,0,0,0-5.14-2.79c-3.18-1.24-6.34-.11-9.48.53-7.57,1.55-14.68,5.67-22.87,4.05a16.52,16.52,0,0,0,3.35,1.37c5.31,1.59,10.34.26,15.31-1.56C142.82,28.08,148.87,25.94,155.23,29.52ZM143.57,225.78l-.71-.15a65.54,65.54,0,0,0-1.81,7.11c-.69,4.88-1.49,9.59-4.92,13.54-1.31,1.51-1.84,3.7-2.71,5.58-.53,1.14.24,1.67,1.1,1.92s2.46.7,2.77.31c1.6-2,3-4.2,2.31-7a6,6,0,0,1,.93-5.35C144.23,236.89,142.75,231.14,143.57,225.78Zm11.18-38.38a40.08,40.08,0,0,0-8.62,14.74l5-6,.45.29q-3.59,11.43-7.19,22.85a95.58,95.58,0,0,0,9.94-26.79l-1.81.29Zm-7.08-49.76.27-.07c-.2-1.22-.48-2.44-.57-3.68a12.47,12.47,0,0,0-5.68-9.73,25.66,25.66,0,0,1-7-7.38c-1.63-2.57-3.33-5.09-5-7.63a47.42,47.42,0,0,0,7.72,14.22,4.48,4.48,0,0,0,1.17.7,7.74,7.74,0,0,1,2.25,1.43,43.6,43.6,0,0,1,3.56,5.35C145.56,133.05,146.57,135.37,147.67,137.64ZM108,219.16c-.46-1.86-.82-3.77-1.42-5.59-.5-1.53-1.4-2.93-1.93-4.46-.76-2.21-1.83-4.06-4.35-5-.82,2.88.33,5,1.76,7a12.18,12.18,0,0,1,1.5,2.94C104.28,216.27,105,218.38,108,219.16Zm16.47,2.23c2.13.15,3.85-1.11,3.93-2.87a3.15,3.15,0,0,0-3.2-3c-2.14-.15-4,1.05-4.17,2.65S122.38,221.25,124.46,221.39Zm73.65-3.94c-4.34,3.93-6.73,8.51-9.14,13.5C192.06,229.63,197.36,221.75,198.11,217.45Zm-14-11.13-1.12-.51c-.6,1.16-1.22,2.32-1.79,3.5a41.38,41.38,0,0,1-1.91,4.1,5.64,5.64,0,0,0-.56,5.12,8.52,8.52,0,0,0,2.2-2.75c.64-1.44,1-3,1.54-4.52S183.62,208,184.16,206.32Zm-53.46,48.1.17-.62c-2.21-1.69-7-.49-5.89-5.9-1.78,1.72-2.33,3.5-1.41,4.95.59.91,2.31,1.24,3.59,1.52A17.4,17.4,0,0,0,130.7,254.42Zm11.77-136.51L138.2,106.7C136.79,110.38,138.53,115.2,142.47,117.91Zm1.16-65.65c-2.4-4.64-.16-9.62-1.64-14.38a33.17,33.17,0,0,0-.47,4.23c0,1.2.4,2.52,0,3.56C140.52,48.44,141.79,50.36,143.63,52.26Zm-28.7,152.15c1.22,1.24,1.84,2.3,2.69,2.56.47.14,1.7-.95,2-1.7A1.73,1.73,0,0,0,118,202.8C117.2,202.79,116.37,203.62,114.93,204.41Zm5.45-123.73c-1.1,2.29-.14,3.73.87,5.09a4.54,4.54,0,0,0,5,1.33C122.68,86.42,121.86,83.48,120.38,80.68Zm15.09-25.36.21.27L138,54.18l1.12,3.91.39-.08-1.08-7.45h-.58c-.33.8-.61,1.61-1,2.37S136,54.53,135.47,55.32Zm-48.34,156c-1.07-.81-1.78-1.74-2.31-1.65a2.48,2.48,0,0,0-1.71,1.64c0,.57,1,1.64,1.59,1.69S86,212.16,87.13,211.35Zm14.45-11.15c-1.27-.84-2-1.67-2.64-1.64a2.2,2.2,0,0,0-1.48,1.64,2.18,2.18,0,0,0,1.48,1.62C99.61,201.85,100.31,201,101.58,200.2Zm40.38-67c.15,2.66,1.93,5.6,4,6.47C145,137.2,144.29,134.82,142,133.21Zm15.74,44.06L156,175.2c-.47.61-1.29,1.2-1.32,1.82s.71,1.33,1.12,2Zm-43,16.93-.77,0c-.39.64-1.12,1.29-1.08,1.9s.91,1,1.41,1.52c.49-.53,1.29-1,1.38-1.61S115.08,194.8,114.74,194.2Zm-33.61,9.71c-.64.78-1.37,1.27-1.32,1.68s.73,1,1.13,1.54c.42-.43,1.11-.83,1.18-1.31S81.62,204.79,81.13,203.91Zm30.68-16.29,1,.57c.23-.61.73-1.28.61-1.82s-.84-1.31-1.3-1.31-1.15.72-1.37,1.27C110.61,186.57,111.41,187.18,111.81,187.62Zm-15.9,7.25c.63-.86,1.2-1.31,1.24-1.8s-.7-1.2-1-1.15A1.92,1.92,0,0,0,94.86,193C94.76,193.38,95.37,194,95.91,194.87ZM150,133.37l.8-.54L148,128.77l-.74.51Z" transform="translate(-47.63 -23.83)"/><path d="M158.75,41.23c-.68,1.94-1.57,3.37-3.69,3.06-.69-.1-1.29-.81-1.93-1.23.52-.61,1-1.59,1.59-1.74A18.17,18.17,0,0,1,158.75,41.23Z" transform="translate(-47.63 -23.83)"/></svg>